<svg xmlns="http://www.w3.org/2000/svg" viewBox="0 100 612 600" class="u-logo" {% if logoX %}x="{{ logoX }}"{% endif %} {% if logoY %}y="{{ logoY }}"{% endif %}><defs/><switch><g><path d="M238.3 272.7s-15.9 10.3-19.6 15.9c-3.7 5.6-.8 12.3 1.9 12.3 4.2.1 7.9-8.5 9.2-10.6s8.5-17.6 8.5-17.6zM211.9 293.6s-12.1 10.1-14.7 14c-2.7 3.8-3.5 10.8-.4 12.7 3.1 1.9 8.1-3.9 9.7-9.1 1.7-5.2 5.4-17.6 5.4-17.6zM190.5 321.4s-12.6 14-12.4 26.9c.1 9.5 5.8 8.7 5.8 8.7s5.3-.9 6.8-8.7c1.1-5.8-1.8-8.9-1.6-12.5.3-3.5 1.4-14.4 1.4-14.4zM178 362.4c-2.1 3.3-7.3 12.3-9 18.5-2.5 9.6-3.8 22.9 2.6 23.1 6.4.3 8.9-6 9.9-9.6 1.1-3.6-1.8-29-3.5-32zM212.9 312.8s-5.1 7.4-9.3 14.9c-4.2 7.4-5.8 13.2.4 15.8 6.2 2.6 7.8-7.7 7.8-7.7l1.1-23zM197.9 349.8c-1.1-.4-1.3 1-2.5 4.1-2.1 5.4-4.1 15.3-4.9 21-1 6.8 2.4 12.3 5 12.3 2.5 0 7.9-3.9 8.6-10.1.6-4.8-2.9-17.4-4.8-23.3-.6-1.8-.8-3.8-1.4-4zM235.2 294.6s-12.2 10.7-14 18.6c-1.7 7.2.1 13.6 3.4 14.5s6.2-5.2 7-9.4c.8-4.1 3.6-23.7 3.6-23.7zM248.3 289.7s-8.6 13.3-8.5 17.5c.1 4.2.6 8 4.3 8.8 3.7.8 7.2-6.1 7.2-10 0-4-3-16.3-3-16.3zM238.6 320.7s-8.6 13.6-8.6 24.9c0 11.3 5.2 9.4 5.2 9.4s8.1-2.7 6.5-10.6c-1.1-4.9-3.1-23.7-3.1-23.7zM221.1 335.9s-8.2 15.7-9.4 21.2c-1.3 5.4-.8 11.2 3.1 12.1 3.8.9 9.2-6.9 8.7-11.6s-2.4-21.7-2.4-21.7zM254.4 316.6s-6.5 11.2-6.8 19.2 4.9 8.9 4.9 8.9 5.2-1 5.8-8.5-3.9-19.6-3.9-19.6zM274.1 532.9c-15.3-10.2-34.9-12.8-65.9-56.4S192 407.9 178.1 408c-13.9.1-5.3 30.1-1.4 39.1 8.5 19.7 20.2 42.1 45.7 62.9 16.6 13.4 48.2 25.1 51.7 22.9z"/><path d="M276.7 515s-35.8-21.4-58.6-65.6c-19.4-37.5-14-58-21.7-55.1-3.3 1.2-9.2 7.6-8.8 13.9.9 15.7 8.5 37.3 24 58.6 23.9 32.9 55.5 49.1 65.1 48.2z"/><path d="M268.7 476.1s-24.6-25.7-38.1-52.8c-13.3-26.8-10.7-45.6-16.4-45.1-5.7.6-9.5 8.8-9.2 12.2.6 5.6 6.7 31.1 20.6 50.3 14 19.3 30.3 30.7 43.1 35.4zM262.3 432.3c-8.5-11-18.6-25.4-22.5-36.9-5.3-15.6-1.5-34.1-8-31.8-10.3 3.6-12.1 13.9-6.8 27.3 7 17.2 24.5 37.4 37.3 41.4zM261.8 397.3s-4.5-9.2-7.7-22.9c-2.6-11.2-1.9-20.5-5.6-21.9-3.6-.4-9.2 2.9-8.8 12.5.1 2.1 2.5 12.9 7.3 20 7.8 11.7 14.8 12.3 14.8 12.3zM119.6 217.8c-3.2-5.2-14.2-10.1-14.2-10.1s1.4.7 1.8 3.4c.8 5.2 1.6 11.1 4.8 15.1 3.4 4.1 11.7 6.8 15.2 5.5-5.5-6.5-4.5-8.9-7.6-13.9zm-6.2 3.5c-1.5-3.2-2-7.8-2-7.8s3.5 3.1 5.7 6.7c1.5 2.5 3.5 7.2 3.5 7.2s-5-1.2-7.2-6.1zM101.9 547.7c-1.1 2-.7 8.9-3.1 11.5-2.1 2.2-8.1 6.3-12.6 9.4-3.7 2.5-6.5 4.1-6.5 4.1s.8-4.9 1.5-8c.4-1.9 1.9-6.3 3.1-8.3 3.8-6.2 6.5-7.9 12.5-10.1 4.2-1.6 7.6-1.4 7.6-1.4s-1.4.6-2.5 2.8zm-11.1 7.8c-1.7 1.9-2.6 5.5-2.8 7.3 1.8-.9 4-1.2 7.1-5.3 2.1-2.7 2.2-4.1 2.2-5.7-2.1.1-4 1.1-6.5 3.7zM525.1 584.7c-2.5-3.5-12.8-5.6-15.6-9.3-1.8-2.4-1.9-4.4-4.3-9.5-1.9-4-4.1-5.1-4.1-5.1s4.9 1.2 8 2.2c2.5.9 6 3.2 7.8 4.7 2.9 2.5 6.7 7.3 8.5 11.9 1.6 4.2 2.2 8.3 2.2 8.3s-1.1-1.2-2.5-3.2zm-8.3-14c-2.3-1.5-6-3.3-6.7-2.8-.7.5-.4 2.4 3.2 5.3 2.7 2.1 5.9 3.5 7.7 3.9-.2-2-1.8-4.8-4.2-6.4zM510.9 243.4c2.4-3.8 3.6-9.9 6.9-13.2 2.2-2.1 15.1-6 15.1-6s-2.8 2.5-3.8 6.6c-.6 2.6-2.2 7.4-3.5 9.4-2.1 3.2-5.8 4.4-10.3 6.3-4.1 1.7-8.4 3.1-8.4 3.1s2.7-4.1 4-6.2zm11-5.1c1.8-3.6.1-7.1.1-7.1s-3.1 3.5-3.9 5.6c-1.1 2.8-1.1 6-1.1 6s3.6-1.8 4.9-4.5zM288.6 494.2s-1 3.9 1 9.8c2.4 7.1 5.3 14.1 9.9 21.8 5.2 8.7 12.1 15.4 12.1 15.4 3.9.3 11.3-.3 17.7-1.1 8.5-1.1 13.1-1.9 15.4-2.6 0 0-13.3-5.8-17.5-8.2-8.8-5-19.2-12.1-28.7-22.4-2.7-3-9.9-12.7-9.9-12.7z"/><path d="M305.2 474.8s9.3 14.3 14.6 19.5c8.9 8.7 18.8 16.8 31.9 22.5 15.2 6.7 30.1 6.7 30.1 6.7s-8.4 4.3-12.2 5.9c-4.8 2-10.2 4.1-14.2 5.3 0 0-6.7.8-13.4-2.1-19.7-8.7-29.8-32.3-33.1-39.8-4.8-10.7-3.7-18-3.7-18z"/><path d="M319 469.9s10.5 12.3 20.2 18.5c14.1 9 28.9 13.6 39.3 14.6 18.9 1.8 36.5-4.4 36.5-4.4-.3.5-6.8 6.7-13.1 11.8-4.6 3.7-8.8 6.5-13.7 9.4 0 0-14.1 2.2-29.8-4.7-11.8-5.2-22.9-15.9-28.9-24.4-7.3-10.3-10.5-20.8-10.5-20.8z"/><path d="M331.6 472.9s6.4 4.9 16.1 9c10.7 4.5 25.4 6.5 39.5 5.7 24.9-1.6 47.1-12.8 47.1-12.8-.3.5-3.7 5.6-7 10-2 2.6-4 5.1-6.1 7.4-6.8 6.3-25.1 7.4-34.9 6.9-12.9-.7-26.5-4.4-35.7-9.4-11.2-6.1-19-16.8-19-16.8z"/><path d="M353 469.9s9 8.7 17 10.7c9.3 2.3 21.1 2.6 29.1 1.6 13.8-1.9 31.3-6.7 41.6-17.8 3-4.8 4.9-10.2 7.8-17.5 2.7-6.6 5.5-16.1 6.9-30.1 1.4-14.1 1-31.7-4.3-51.1-3.4-12.7-9.6-28.4-13.4-36.2-3-6.3-6.3-4.9-8.4-3.8-2 1-5.4 3.7-2.1 8.7 5.3 8 11 26 13.6 34.5 2.8 9 7.4 32 7.9 50.9.4 13.1-2.1 24.3-3.7 27.2-1.9 3.4-6.3 8.3-12.9 12.2-7.7 4.6-22.9 9-32.9 10.9-6.9 1.3-21.8 2.5-32.7 2.3-7.7-.4-13.5-2.5-13.5-2.5z"/><path d="M409.4 323.3c3.4-1.1 9.1 2 11.2 6.1 3.2 6.4 6.8 27.8 9.4 41.2 2.4 12.4 4.8 31.2 4.2 47.6-.4 10.7-3.7 20-6.5 21.8-.9-2.7.5-10-.5-22.7-1.1-14.3-4.8-34.4-7.5-45.6-2.2-8.9-11-34.6-14.8-44.4-.1 0 .4-2.6 4.5-4zM384.6 326.8c0-2 4-5.7 5.8-5.9 5-.4 11.2 8.2 14.7 21 2.4 8.8 2.7 18.8 2.4 27.2-.2 5.5-1.2 12.2-2.8 14.9-1.4-6.7-6-26-9.1-34.8-2.9-8.5-9-20.4-11-22.4zM363.5 326.4s4.4-5.8 8.9-5.3 7.2 4.1 10.4 16.1c2.2 8.1 2.9 16.6 1.4 20.4-2-2.5-3.6-10.4-9.2-19.4-4.2-6.7-11.5-11.8-11.5-11.8zM247 268.1s4.3-4.8 13.2-4.8c7.6 0 22.3 13.3 25.5 39.6 1 8.3 1.6 31.3 6.5 44.3 2.7 7.3 8.6 16.9 8.6 16.9s-5.5 0-13.1-9.3c-5.7-6.9-10-19.2-11-28.1-2.1-19.6-4.1-40.3-13.5-51.7-7.5-9.2-16.2-6.9-16.2-6.9z"/><path d="M251.6 280.2s5.5 1.5 10.7 10.6c6.5 11.2 6.9 31.6 8.6 42.3 1.3 8.4 7.4 18.5 7.4 18.5s-1.9 1.4-4.2 5.4c-2.1 3.6-3.9 7.1-5 11.3-.5 1.8-1.6 7.4-1.6 7.4L264 377s1-47.5-1.2-62.1c-1.8-12-3.2-21.6-6.3-26.4-2.2-3.4-5.1-6.4-5.1-6.4l.2-1.9zM280.9 357.8c-1.7 0-7 8.8-8.8 13.5-2 5.5-4.4 20.4-4.4 20.4s4.7-8.9 13.8-14c7.3-4 14.5-4.7 14.5-4.7 1-.9-12.7-15.2-15.1-15.2zM284.8 380.5s-2 6.2-2.7 14c-.6 6.8-.2 14.5-.2 14.5s-4.8-4.6-6.3-6.4c-1.5-1.8-4.8-5.3-4.8-5.3s2-5.5 5.4-9.3c4.4-4.8 8.6-7.5 8.6-7.5zM281 438.1s-.4-5.6-.3-8.6c.2-6.2 1.6-9.1 1.6-9.1s-5.5-6.3-7.3-8.4c-1.8-2.2-7.3-8.9-7.3-8.9v19.2c0-.1 9.9 14.6 13.3 15.8zM269.2 435.2c-1 .5.5 13.1 2.7 22.4 2.6 10.6 8.9 21.2 10.4 21 0 0 1.1-6.2 2.6-11.4 1.8-6.2 3.3-9.5 3.3-9.5s-7.3-8.8-8.2-9.9c-1-1.1-10.8-12.6-10.8-12.6zM299.5 439.6s-8.9-12.8-12.8-14.5c0 0-1.6 2.9-1.6 11.7 0 8.9 1.4 11.9 1.4 11.9s1.2 1.5 1.7 1.9c.6.5 2.5 1.4 2.5 1.4s1.8-3.5 3.8-6.5c2.2-3 5-5.9 5-5.9zM304.1 410c-3.7-2.6-10.6-30.9-10.6-30.9l-1.5.1s-1 1.9-2.4 9c-.9 4.6-1.3 10.8-1.1 18.3.1 5.5.8 10.1.8 10.1.6.2 1.8.8 4 3.4 1.5 1.7 3.1 3.4 3.9 4.5.6-3.2.5-3.9 1.7-7 2.2-5.4 5.2-7.5 5.2-7.5zM312.2 433.4s-1.8.1-4.3.9c-2.1.7-3.8 1.8-3.8 1.8s-1.2-4.7-1.1-9.3c0-4.1.7-7 3.2-9.3 2.5 1.5 4.2 4 5.2 7.6 1 4 .8 8.3.8 8.3zM324.5 458.2s.5-.9.9-3.4c.5-2.9.2-6.8-.3-8.5-.9-3.1-3.4-6.5-8.2-7.6-2.2-.5-8.2 1.2-12.8 5.2-3.5 3-6 6.8-8.6 11.1-3.6 5.7-9.8 24.9-9.4 28.3.4 3.4 14 15.7 14 15.7s1.3-.8 1.1-1.9c-1.8-1.8-3.8-4.7-4.9-7.9-.5-1.4-.9-5.8-.8-10.7.1-5.9.8-9 2.2-10.8 1.3-1.6 2.6-3 5.6-3 2.9 0 4.1 2 7.7 2.1 2.6 0 4.7-1.5 5.9-3 1.3-1.7 2.5-3.9 1.7-5.9-.3-.7-1.7-2.4-2.9-3.3-1-.8-1.9-1.2-1.9-1.2s1 4 1 5.3c.1 2.2-1.6 3.9-4.7 4-2.4.1-4.7-2.7-5.3-4-.9-2.2-1.7-4.4-1-6.6.6-1.9 3.2-4.5 4.5-5.5 1.4-1.1 4.8-2.1 7.4-1.5 2.2.5 4.2 2.1 5.3 3.3 1.1 1.2 2.3 3.6 3 5.7.6 1.6.5 4.1.5 4.1zM378.1 443.1s1.6-5.9 1-8.1c-.6-2.2-6.4-8.7-13.9-8.7-9 0-13.6 4.3-17.9 11.7-4.3 7.4-10.5 21.3-11.2 22.7-.9 1.7-.8 6.6 1.1 8.4 1.5 1.3 9.6 5.5 10.2 5.7.8.3 1.1.1 1.3-.1.1-.2.3-.8.1-1.1-.2-.3-5-4.9-5.5-8.4-1-7 4.9-19.6 8.3-19.5 3.4.1 7.4 3.9 8.1 4.1 1.9.8 6.1 1.6 9.3-1.2 3.1-2.6 3.2-5.9 1.1-8.7-2.2-2.8-5.3-1.8-5.3-1.8s1.1.7 2.3 1.8c1 1 1.1 2.8-.2 4.1-1.6 1.6-4.8.9-7.8-1.3-3.1-2.3-3.1-5.9-.3-8.9 2.6-2.8 6.8-3.6 9.3-3.1 3.8.8 6 2.1 7.9 5.4 1 1.7.9 4.9.7 5.7-.3 1.6 1.4 1.3 1.4 1.3zM302.1 345.8c-2.2 1.5-3 3.4-3 3.4s3.4 7.9 8.3 10.9c-.2-2.7-.6-6.7-.5-9.9 0-2.3-.1-6.3-.1-6.3s-2.5.5-4.7 1.9zM305 401.4l7.6-20-4.9-19.3-9.1 16.9zM338.3 421.9s-2.8 7.1-4.5 10.2c-1.8 3.3-5.9 8.6-5.9 8.6s2.6 3 3.7 4.5 3.5 5.7 3.5 5.7 6.3-14.8 3.2-29zM323.1 418.2c1.5 2 2 4.5 2 8.6-.1 5-1.1 10.4-1.1 10.4s-1.7-1.3-3.7-2.2c-1.9-.9-3.8-1.3-3.8-1.3s.4-3.7 1.6-7.4c1.2-3.9 2.6-7 5-8.1zM317.6 377l1.5 2.3 3.1 30.1s-1.3-.1-3.5 3.8c-2 3.5-3 5-3 5s-.9-1-2.8-4.3c-1.5-2.6-3.7-3.9-3.7-3.9l8.4-33zM326 401.7l8.6-17.6s-3-.9-5.6-2.2c-2.1-1-4.5-2.7-4.5-2.7l1.5 22.5zM331 425.7s3.3-4 5.1-7.2c1.2-2.1 3.3-6.8 3.3-6.8s1.9-26 1.1-26.3h-.3l-11.6 24.1s1.9 1.6 2.5 7c.2 2.3-.1 9.2-.1 9.2zM356.9 371.7s-4.3 8.7-4 11.6c.3 2.9 1.9 5.6 1.9 5.6s10.3 14 11.6 15.5c1.2 1.5 3.8 5.1 5.5 5.5 1.8.4 6.5.4 6.5.4-3.8-4.2-7.4-10-11.6-17-4.1-6.8-9.9-21.6-9.9-21.6zM392.7 405.9c1.7-6.5 3.2-9 2.6-11.8 0 0-.4-3.4-4.5-10.6-2.4-4.3-8.4-11-10.5-13.2-2.3-2.4-6.8-5.9-6.8-5.9s-12.8.8-13.4 1.2c3.2 2.5 13.3 9.9 18.8 16.4 5.1 5.8 11.1 17.9 13.8 23.9zM328.3 361c3.6 3.1 8.5 5.5 13.9 6.3 5.6.9 10.6-1 10.6-1s.6-1.2.6-2.3c-1.1 0-9.3-.2-13.8-4-6.2-5.1-8-11.2-8-11.2s-3.1-1.1-4.1-1.7c-2.7-1.6-9.6-7.8-9.6-7.8s0 4.3 2 9.2c2.2 5.6 5.2 9.6 8.4 12.5z"/><path d="M326.9 366.3c-2.7-2.1-7.3-7.3-9.1-10.2-1.3-2.1-3.3-8-3.8-9.3-.6-1.8-.5-2.2-1.8-2-1.3.2-.9 7.6.8 12.8 2.1 6.6 5.9 11.1 8.9 13.9 2.9 2.8 6.8 5.9 13.8 8.1 6.9 2.2 14.8 1.8 14.8 1.8v-6.6s-8.6-1.2-11.4-2.1c-3.4-1.2-9.5-4.3-12.2-6.4zM325.7 320.4s.2-8.4 1.9-17.5c1.7-8.6 4.9-18.3 6.2-21.4 4.6-11.3 11.3-18.3 18.6-20.8 4.1-1.4 9.3.4 9.3.4s-5.2.6-9.1 3.7c-4.6 3.7-9.6 12-11.3 17-2.1 6-4.3 16.4-5.4 24-1.1 8.1-.8 13.7-.8 13.7-2.5.1-3.8-.1-9.4.9z"/><path d="M356.2 273.5s-3.8-.2-5.7 1.8c-2.2 2.4-3.4 4.8-5.7 15.6-2.2 9.8-3 19.4-3.1 22.4-.1 2.1-.3 6.6-.3 6.6s2.8.3 4.1.6c1.9.4 5 1.4 5 1.4s-.7-8.3-.8-12.2c-.2-10.3 1-21.6 2.8-28.6 1.4-6 3.7-7.6 3.7-7.6zM354.9 303.7c0 .1 1 8.1 2.9 11.1.8 1.3 3.9 3.4 7.1 2.6 4-1 0-6.4-1.8-8.4-1.7-1.9-5.8-5.6-8.2-5.3zM362.4 261.6c5.9 1.1 11.8 4.3 13.9 7.6.9 1.3.9 3.2-.1 4.3-6.6 7.4-10-3.5-10-7.3 0-2.2-3.8-4.6-3.8-4.6zM378.5 272.5s16.6 7 20.3 10.9c3.7 3.9 2.4 7.4 1.6 8.9-.6 1.1-3.6 2.6-9.1-1.8s-11.4-16.5-12.8-18zM363.7 277.7c1.7.4 12.7 6.8 15.3 10 1.5 1.9 2.5 5.2 0 7.1-3.8 2.9-6.9-2.1-8.7-4.4-2.9-3.7-6.6-12.7-6.6-12.7zM355.3 284.1s1.7 10.6 3.8 12.9c2.2 2.4 3.7 1.2 4.4.5.9-.8 1.8-2.6.8-3.9-.7-1-6.7-8.2-9-9.5zM369.2 296.6c-.7 2 2.1 13.5 6.9 18.6 4.4 4.7 6.2 3 7.6 1.6.7-.7 1.8-1.7 1.3-3.6-2-7.7-15.2-16.1-15.8-16.6zM393.5 313.7c4.8 6.7 9.6 5.9 11.4 4.4 2.7-2.2 4.8-4.3-4.4-13.4-4.6-4.6-15.4-9.8-15.4-9.8s6.8 16.6 8.4 18.8zM425.2 321.2c4.1-.9 7.3-4.5-5.7-15.7-6.1-5.3-14.1-7.8-14.1-7.8s2.6 9.2 5.4 13.3c6.4 9.2 10.1 11.2 14.4 10.2z"/><path d="M563.8 395.7c-7.9.7-28.1 12-34.8 2.6-5.2-7.3-2.6-14.1 1.6-17.8 3.5-3.1 8.5-3.7 8.5-3.7s-4.6-4.3-15.5.3c-9.8 6.8-30.9 22.9-38 5-9.6-24.4 25.1-19.1 38.6-35.5 6-7.3 5.8-16.7 11.1-23.4 2.8-5.8 17.4-8.7 25.1-13.5 5.1-3.1 5.5-8.6 5.5-8.6s-12.7 6.7-17.3 7.1c-6.4.7-15.8-3-25.6 1.4-6.8 3-30.1 32.7-45.7 20.5s7.4-30.2 10.2-42.6c2.7-11.8-1.6-20.9 1.1-27.2 2.1-4.9 8.6-8.1 8.6-8.1s-10 0-16.3 5.9c-4.7 4.4-11.8 12-19.9 17.1-9.3 5.9-20.1 9.2-31-1.1-8-7.6-5.6-17.6.9-26.6 5.9-8.1 13.9-16 15.7-23.7 1.5-6.4 1.3-12 .5-15.6-.5-2.6-1.5-4.2-1.5-4.2s.6 2.2.8 4.6c.2 2.3-2.5 7.2-3.3 8.3-3.3 4.5-5.7 6.6-9.6 8.4-3.2 1.4-9.6 0-13.5-5.2-5-6.5-5.7-15.7-.9-23.5 4.7-7.5 11.6-15.5 16.6-20.1 6.4-5.9 8.1-11.5 7.6-13.6 0 0-3.6 5.9-11.1 9.4-9.6 4.5-24.5 7.6-33.3 17.7-6.3 7.1-6 22.5-7.4 32.3-1.3 9.3-13 14.3-20.2 14.3-6 0-16.9-5-17.5-15-.5-8.8-2.4-20.4-4.9-27.7-3-8.9-12.3-15.5-15.9-24.5-2.2-5.6-3.9-12.8-4.3-17.2-1-14.1 12.8-27.4 11.2-48.7 0 0-3.6 10.7-7.7 15.7-4 5-18 15.7-18.9 30.2-.4 7.1 2.9 24.8 3.9 37.9.8 9.9 3.1 17.9-5 18.7-11.5 1.1-17-9.4-16.6-15.2.4-5.7 2.9-10.1 6.2-17.7-7.3.2-16.5 6.4-20.5 21-1.4 4.9 1.6 13.4 2.7 21.3 1.3 9.5-3.1 17.3-15.1 18.9-12.3-.2-21.7-8-24.3-18-3-12.1-1.5-27.5-8.6-36-7.8-9.1-29.1-13.8-35.5-21.6-5.4-6.5-6.3-9.1-6.5-9.8.3 1.3 1.9 8.9 5.9 14.4 5.9 8.1 16.5 21.1 20 26.5 4.8 7.4 2.3 19-1.6 20.8-10.1 4.8-18.2 4.7-22.6-.8-3.7-4.7-5.5-9.7-5.5-9.7s-.4 3.7.9 8.5c1.8 6.7 6.6 15.2 13.5 22.3 9.9 10.1 9.1 25.5-1.1 34.2-12.4 10.6-29.4 8.9-38-3.3-12.2-17.3-20-24.7-27.1-23.4.4 1.3 3.9 2.5 4.9 11 1.2 9.6-1.1 23.5 4 33.5 8.2 16.4 17 20.8 6.3 32.5-5.4 5.9-12.8 6.7-23.1 1.9-10.5-5-17.4-22.2-27.6-26.8-13.1-5.9-22.9-2.6-28.1-4-5.2-1.5-9.1-6.3-9.1-6.3s2.2 5.6 3.5 7.1c4.9 5.7 17.4 9.9 23.2 18.8 1.7 2.6 4 10.6 5.9 14.8.7 1.6 3.3 6.1 8 10.1 3.8 3.3 9.3 6.1 13.7 7.5 15.5 5 20.7 12.6 18.2 20.7-2.9 9.3-15.4 13.2-29.1 9.5-3.5-.9-7.5-3-10.4-3.8-8.6-2.6-13.7-3.4-19.4-2.3-7.3 1.4-24.5 20.3-30.1 22.3-6.9 2.6-15.1 2-18.4 2.7 2.1 4.3 15.6 6.7 22.8 5.4 9.3-1.6 12.8-6.2 17.6-7.4 6-1.5 10.2.2 13.1 1.9 4.6 2.6 6.3 12.1 3.8 17.5-2.6 5.7-12.3 7.2-12.3 7.2s8.6 5.5 19.5-3.1c3.6-2.9 13.4-10 17.8-11.7 6.8-2.7 15.5.8 18.6 5.3 4.6 6.5 1.1 14.4-8.7 21.5-12.1 8.7-26.7 11.3-33.4 18.1-4.9 5-8.1 19.7-12.5 25-7 8.5-17.4 8.7-25.6 13.9-4.2 2.7-3.6 6.6-3.6 6.6s2.9-3.2 10.8-3.2c12.9 0 26.3.3 34-4.6 7.3-4.6 16.7-19.2 24.3-22.1 8-3 16-1.7 21.9 1.9 5.5 3.3 7.8 8.4 5.1 14.7-3.6 8.3-12.4 19.6-14.5 26.3-3.6 11.4-3.8 26.4-7.5 34.3-.7 1.6-4.4 5.3-4.4 5.3s4.4-.7 9.5-3.2 10.8-6.9 13.2-9.3c3-3 7.7-12.8 15.2-16.9 8.3-4.6 21.5-3.3 30.6 3.1 9.3 6.6 10.2 16.9 5.7 25.4-4 7.4-12.8 13.4-17 19.5-8.7 12.4-4.3 28.9-4.3 28.9s1.3-8.3 5.9-13.8c3.8-4.6 10-7 18.5-3.5 6.8 2.8 9.9 10.5 7 19.1-4 11.8-19.3 25-23.7 30.9-5 6.7-4.2 15.3-4.2 15.3s6.3-10.9 14.3-13.9c5.5-2.1 26.6-11.2 32.2-20.1 3.2-5 4.8-15.2 5.8-25.6 1.3-13.7 7.8-21 21.4-21.4 25.3-.7 18.8 26.5 23.2 39.1 4.3 12.1 22.8 37.3 22.2 49.4-.4 8.6-10.4 31.6-11.6 36.4-1.4 5.4.4 9 .4 9s1.2-5.9 2.1-7.4c.9-1.7 7.6-8.5 9.6-10.8 4.2-4.7 15.9-12.5 14.8-30.2-1-15.9-15.7-49.3 1.2-54.3 23.2-6.9 14.5 31.2 10.4 34.9 0 0 15.8-8.6 18.7-20.3 1.3-5.3-.8-15 1.3-23.5 2.2-8.7 11.8-19 20.1-18.7 7.9.3 15.2 6.4 17.7 14.3 3.3 10.7 2.8 24.7 6.4 31.7 4.6 9 11.6 15.9 17.2 18.8 4.1 2.1 13.2 4.1 17 6.7 3.7 2.5 11.9 13.6 11.9 13.6s-.2-11.7-6.2-17.7c-5.9-5.8-17-17.7-19.4-29.7-1.1-5.4-.5-12.8 4.7-17.2 5.6-4.7 11.5-2.5 15.7.7C430.8 584 436 595 436 595s1.8-6.1-.4-15.1c-3.8-15.9-15.6-21.8-21.2-33.1-3.5-9.2 5-24.3 9.8-28.2 6.8-5.6 13.4-5 19.2-3.2 10.5 3.3 20.4 19.2 24.3 24.6 3.3 4.6 15.5 12.2 20.9 13.3-.8-2-6.9-7.4-8.8-14.7-2.3-8.7-.5-16.6-1.4-21.7-.6-3.1-1-7.8-2.5-11.1-1.6-3.4-6.3-9.4-8.7-11.6-3.2-3-16.1-16.2 2.5-25.9 11.3-5.9 25.3 6.9 35.4 18 6.7 7.3 14.1 10.7 22.4 12.1 6.7 1.2 14.7.1 18.1 1.1 4.6 1.4 12.1 7.8 12.1 7.8s-4.1-8.3-8.1-10.3c-9.5-4.8-17.5-9.7-20.1-12.7-4.3-5-8.8-25.9-23.2-32.5-9.5-4.4-41.7-20.7-20.2-37.7 10.2-8.1 36.7 17.7 54.4 9 7.9-3.9 13.2-12.8 20.7-17.4 9-5.5 20.3-3.6 20.3-3.6s-9.8-7.1-17.7-6.4zm-29 19.3c-7.7-.1-24.1-10-39.6-11.2-9.7-.7-18.8 2.6-22.7 10.8-4.2 8.9-3.2 19.8 2.9 26.8 8.7 9.9 25.5 14.9 32.2 21.3 11.4 11 11.3 16.9 16.1 22.3 4.8 5.4 11.9 9.3 11.9 9.3s-5.3.1-8.9-.6c-3.4-.7-22.1-21.8-31.5-28.2-9.4-6.4-28.9-7.7-39 1.4-4.8 4.3-5.8 12.2-2.4 20.5 2.5 6.1 8.2 12.4 12.5 18.4 4 5.5 4.4 10.9 5.1 15.8 1.1 7.7 1.5 16.9 1.5 16.9s-13-21.3-19.8-26c-5.1-3.6-19.6-9.7-30.8-3.2-11.3 6.5-20.2 28.7-14.4 42 4.4 10.1 8.5 9.9 13.2 14 4.7 4.2 5.1 7.4 5.1 7.4s-6.2-3.4-12.1-3.6c-5.9-.3-11.4 4.8-12.8 6.8s-6.7 14.7-3.5 25.8c3.2 11.2 9 16.7 9 16.7s-13.5-11.1-16.3-18.4c-2.7-7.3-3.4-30.4-8.3-38.8-4-6.8-12.1-12.5-21.8-12.8s-19.1 5.9-23.3 11.1c-9.4 11.5-3.7 26.2-3.4 37.2.3 10.9-5.3 12.2-5.3 12.2s2.4-9 1.8-15.2c-.9-9-6.2-18.1-18.9-17.9-11.2.1-17.5 11.7-17.2 25.2.3 12.3 6.8 26 7.2 35 1 18.7-8.4 27.7-8.4 27.7s6.7-14.8 4.6-23.7c-1-4.4-3.3-14.4-7.6-24.4-4.4-10.3-11-20.6-12.1-26.1-2.8-13.2 1.5-47.4-30.2-47.8S221 572.8 218 583.3c-1.4 4.7-5 15.1-10.9 20.9-7.2 7.1-16.9 9.1-16.9 9.1s9.5-6.3 14.9-15.5c4.4-7.7 5.2-19.8 3.6-24.3-1.6-4.6-6.2-11.8-13.9-13.3-7.5-1.4-15 2.6-15 2.6s2.3-4.6 8-9.4c7-5.9 12.8-9.2 15.5-16.5 4.5-12.1-1.2-25.3-12.1-32.7-7-4.8-28.3-11.1-42.5 1.3-6.9 6.1-9.4 14.5-12.7 19.2-3.5 4.9-7.8 5.9-7.8 5.9s2.5-5.1 3.4-9.9c1.5-7.4 2.4-17.3 5.9-23 2.5-4.1 10.9-13 15.7-20.9 4.6-7.5 1.6-17.4-4.7-23.5-7.6-7.2-17.1-10.1-31.3-4.7-10.1 3.9-21.1 21-30.7 26.1s-20.7 3.7-20.7 3.7 14.3-5.8 17.4-9.7c3.6-4.6 5.8-16.9 9.9-21 8.1-8.2 35.1-14 42.1-21.3 7-7.3 7.9-18.7 5.9-24.7-1.9-5.8-12.6-15.4-28-11.4-5.5 1.7-18.9 11.7-18.9 11.7s2.1-3.5 1.8-7.5c-.3-3.8-2.9-9.4-5.9-11.3-2.6-1.7-9.1-5-15.2-4.6-7.2.5-14 4.8-14 4.8s10.8-12 20.1-12.7c3.6-.3 10.1.1 17.6 1.8 7.6 1.7 14.8 6 23.5 6.2 13.5.4 26.3-10.6 27.8-17.2 3.7-16-9.9-25-19.5-27.3-6.3-1.5-20.3-6.4-24-12.2-3.1-4.9-5.8-12.8-10.2-19.2-4.5-6.4-8.5-10-8.5-10s7.5-.6 12.1 2.8c2.3 1.8 7.8 4.6 12 10.3 1.7 2.3 8.5 11.5 16.4 17.1 10.9 7.7 27.3 4.5 32 .4 9.7-8.4 9.2-18.3 1.1-31.7-2.3-3.8-6.8-10.6-9.1-17.5-2.2-6.5-2-10.9-2.5-14.6-.4-2.9-3-11.5-3-11.5s2.3-.4 5.6 3.9c4.8 6.2 9.9 16.2 13.3 19.7 10.7 11.2 24.8 13.3 39.8 1.9 8.8-6.7 17.4-19.9 14-29.2-3.4-9.2-14.1-17-18.4-23.7 6.6 1.4 10.8 3.4 19.7-3 9.5-6.8 8.7-24 4.5-30.7-3-4.7-12.6-13.6-12.6-13.6s12.2 3.7 17.7 11.5 6.6 37.4 10.5 44.5c4 7.1 17.9 15 28.7 14 13.3-1.3 23-9 22.3-23.2-.5-10.2-4.8-16.6-4.9-22.3 0-2.6 3.4-9.7 3.4-9.7-.8.2.5 11.1 3.1 16.4 3.4 7 10.3 11.1 19.8 10.6 10.4-.6 15.1-10.3 12.2-28.8-3-18.4-7.6-30.6-7.1-36.4.6-7 4.7-14.9 9.3-18.2 0 0-6.1 11.4-5.3 19.8.8 8 2.7 16.2 6.1 23.4 3.5 7.4 8.5 13.8 10.4 20.5 2.2 7.8 4.5 23.3 8 36.8 2.9 11.1 16.3 16 22.8 16.3 11.3.4 23.9-4.6 27.7-18.6 3.7-13.6 0-27.3 5.8-35.6 4.9-7 24.2-15.5 24.2-15.5s-7.5 6.4-13.1 15c-4 6.2-7.1 15.9-5.4 22.7 1.6 6.5 9.4 17.7 20.8 15.5 3.1-.6 5.4-1.5 5.4-1.5s-6.2 7.2-14.3 14.7c-8.3 7.6-7.9 25.6.1 34.3 12 13 26.6 15.4 43 5.1 9.7-6.1 14.8-15.3 18.1-20.6 1.3 7.9 1.1 13.8-1.3 22.3-2 7.1-12.1 15.1-16.6 24.7-3.9 8.3-3.5 18 2.5 25.2 12.9 15.6 36.7 2.2 41.4-3.1 3.3-3.8 12.8-17.1 17.8-19.2 5-2.1 14.8-4.2 21-3.2-6.5 2.5-12.1 5.9-15.3 9-7.9 7.6-7.6 18.7-13.3 23-5.6 4.1-23.2 8.6-34.7 16.3-8.1 5.5-12.4 13-10 21.2 2.8 9.5 14.6 17.1 24.5 16.4 6.3-.5 13.2-3.8 18.2-7.9 4.7-3.8 6.6-6.4 6.6-6.4s-3.3 12.2.5 18.4c4.1 6.8 16.6 8.2 26.7 5.8-3.7 4.2-6.8 8.5-15.1 8.4z"/><path d="M297 344.2c-.2-.5-.2-.6-.5-.8 1.3-.6 5.7-10 15.1-15 11.3-6 19.6-5.7 29.2-4.8 6.4.6 17.4 5.1 23.9 11.8 10 10.3 9.2 25.4 9.2 25.4s-.4.7-1 .2c0 0-1.2-6-3.2-9.5-3.4-6-6.2-9.3-12.5-12.9-6-3.5-13.1-2.3-19.5-3.4-4.9-.8-12.9-5.9-22.2-3.4-6 1.6-11.1 5.2-13.7 8.2-1.2 1.4-3.5 3.4-4.8 4.2z"/><path d="M356.8 346.8c-3.9-1.6-6.7-1.9-16.1-3.8-6-1.4-15.9-7.2-15.9-7.2v1.4s5.7 3.6 11.3 8.5c6.6 5.8 13.5 13.1 16.7 14.2 5.5 1.8 7.4-1.8 14.6.9-2.2-5.9-5.9-12.1-10.6-14zm-2.7 10.5c-1.8 0-3.3-1.5-3.3-3.3 0-1.8 1.5-3.3 3.3-3.3 1.8 0 3.3 1.5 3.3 3.3 0 1.9-1.5 3.3-3.3 3.3z"/></g></switch></svg>
