<?xml version="1.0" standalone="no"?>
<!DOCTYPE svg PUBLIC "-//W3C//DTD SVG 20010904//EN"
 "http://www.w3.org/TR/2001/REC-SVG-20010904/DTD/svg10.dtd">
<svg version="1.0" xmlns="http://www.w3.org/2000/svg"
 width="586.000000pt" height="586.000000pt" viewBox="0 0 586.000000 586.000000"
 preserveAspectRatio="xMidYMid meet">
<metadata>
Created by potrace 1.11, written by Peter Selinger 2001-2013
</metadata>
<g transform="translate(0.000000,586.000000) scale(0.100000,-0.100000)"
fill="#000000" stroke="none">
<path d="M3236 5783 c-19 -41 -57 -95 -103 -146 -80 -89 -123 -164 -130 -230
-3 -23 5 -116 16 -207 11 -91 23 -202 27 -246 6 -76 5 -83 -16 -104 -45 -45
-149 -8 -184 64 -23 48 -20 90 13 174 32 80 28 86 -37 53 -51 -26 -86 -66
-116 -131 -30 -63 -32 -107 -11 -205 20 -93 19 -133 -4 -175 -57 -107 -228
-102 -323 10 -42 48 -52 80 -73 235 -27 199 -48 226 -253 330 -147 75 -147 74
-197 140 -37 50 -40 42 -9 -31 8 -18 64 -99 125 -180 61 -81 115 -159 121
-173 15 -40 5 -137 -17 -161 -24 -27 -118 -54 -163 -47 -41 7 -65 27 -105 87
l-29 45 6 -48 c8 -62 62 -165 126 -241 68 -79 82 -115 78 -197 -3 -52 -10 -75
-31 -108 -31 -47 -102 -96 -162 -112 -85 -23 -189 10 -244 78 -17 21 -58 74
-93 117 -61 78 -134 136 -171 136 -10 0 -17 -3 -15 -7 32 -62 38 -91 43 -214
8 -161 20 -206 91 -324 61 -103 68 -142 31 -196 -50 -75 -123 -96 -218 -64
-55 19 -98 57 -188 167 -95 117 -140 139 -295 148 -107 6 -141 15 -178 48 -23
20 -23 5 1 -34 10 -17 56 -55 102 -86 107 -70 140 -108 174 -199 53 -140 116
-198 281 -260 70 -27 130 -79 143 -127 8 -28 7 -44 -8 -78 -43 -96 -176 -117
-351 -55 -116 41 -202 50 -251 27 -19 -9 -85 -59 -148 -112 -62 -52 -125 -100
-139 -105 -13 -5 -58 -12 -98 -16 -41 -3 -74 -10 -74 -14 0 -15 57 -38 120
-48 80 -13 147 0 219 41 132 75 253 14 238 -120 -6 -52 -26 -76 -84 -98 -51
-20 -42 -34 22 -34 47 0 89 21 215 108 82 56 96 62 141 62 85 0 149 -50 149
-117 0 -88 -80 -159 -280 -247 -136 -61 -161 -82 -200 -169 -90 -202 -95 -207
-236 -263 -94 -37 -134 -66 -134 -97 0 -17 2 -18 16 -6 11 9 64 16 164 20 223
11 242 18 375 149 61 60 124 114 140 120 72 28 190 7 242 -42 52 -49 41 -96
-61 -268 -63 -105 -69 -125 -97 -283 -22 -133 -35 -175 -62 -204 -20 -23 -20
-23 0 -23 34 0 138 58 184 103 25 23 65 69 91 103 31 41 61 68 92 83 118 57
304 3 355 -103 45 -92 24 -161 -88 -280 -49 -53 -94 -112 -108 -142 -26 -58
-39 -163 -25 -209 l9 -30 12 41 c16 61 63 120 106 134 76 25 170 -16 193 -85
29 -86 -11 -170 -158 -330 -88 -96 -119 -150 -120 -204 l0 -33 47 53 c38 42
68 62 152 101 129 60 237 131 262 172 27 43 46 116 58 214 15 117 27 157 62
197 58 66 196 83 274 35 50 -31 73 -90 90 -223 17 -135 20 -144 125 -336 100
-183 124 -249 115 -316 -3 -27 -31 -116 -61 -198 -31 -86 -54 -167 -54 -189 0
-44 14 -44 23 1 4 18 42 66 102 130 162 171 173 215 120 475 -47 229 -46 303
3 347 26 24 41 29 82 29 60 0 84 -19 101 -82 14 -53 5 -152 -20 -219 l-19 -49
21 12 c38 20 129 112 148 150 14 27 19 58 19 116 0 118 10 167 44 224 78 129
196 154 289 61 44 -44 62 -96 82 -238 20 -143 52 -211 138 -291 53 -49 78 -64
148 -88 86 -30 119 -55 182 -136 l27 -35 0 35 c0 52 -33 115 -95 181 -108 118
-156 211 -156 305 0 178 168 197 271 31 19 -31 38 -57 43 -57 12 0 8 83 -9
145 -19 74 -46 121 -119 205 -97 112 -111 160 -79 257 32 99 98 168 176 187
43 10 119 -12 169 -49 25 -18 79 -76 118 -129 40 -52 88 -108 107 -124 41 -34
142 -87 150 -79 3 3 -10 27 -29 54 -45 61 -57 108 -57 213 0 149 -28 224 -120
324 -44 49 -70 96 -70 129 0 60 90 137 161 137 59 0 137 -47 239 -145 154
-148 186 -164 356 -174 107 -6 112 -8 162 -44 58 -41 63 -38 27 15 -15 22 -51
51 -97 76 -133 73 -148 88 -204 203 -62 126 -117 190 -195 230 -98 49 -164 95
-207 145 -68 76 -66 142 6 205 31 28 41 31 81 27 25 -3 105 -29 176 -58 142
-57 217 -71 280 -50 22 7 72 45 124 93 98 91 145 116 240 126 l66 6 -54 28
c-67 33 -133 35 -215 7 -163 -56 -234 -49 -268 27 -23 52 -18 90 18 133 14 16
41 34 61 41 31 10 34 13 18 21 -32 19 -112 3 -168 -33 -210 -134 -298 -141
-347 -28 -46 109 -9 160 165 228 189 73 230 110 280 253 38 109 68 138 198
194 69 30 116 57 132 76 45 53 31 59 -52 21 -76 -33 -81 -34 -173 -28 -132 8
-174 -7 -270 -91 -189 -168 -309 -203 -384 -113 -54 64 -46 112 50 269 75 123
85 164 77 302 l-6 98 45 45 c50 49 47 52 -31 29 -40 -11 -69 -31 -124 -83
-144 -134 -224 -181 -315 -181 -59 0 -102 18 -149 63 -83 78 -66 167 62 332
34 44 72 99 84 123 26 51 37 153 23 202 l-10 35 -1 -36 c-1 -43 -46 -117 -92
-149 -65 -47 -143 -19 -184 64 -55 109 -16 203 156 383 58 60 99 121 99 149 0
4 -19 -11 -43 -33 -25 -23 -75 -53 -122 -72 -242 -99 -300 -143 -328 -252 -9
-35 -21 -106 -27 -157 -11 -116 -29 -147 -99 -184 -68 -36 -139 -38 -195 -5
-63 36 -74 59 -96 202 -27 181 -39 216 -119 322 -77 102 -109 179 -118 283 -5
60 -2 75 40 185 51 138 70 215 65 266 l-3 36 -29 -64z m-116 -265 c-54 -124
-28 -270 81 -467 46 -83 53 -105 90 -283 22 -106 49 -212 60 -235 26 -54 105
-109 179 -124 118 -25 242 31 292 131 24 47 30 77 42 206 9 96 20 162 30 182
19 36 77 81 169 132 l62 34 -46 -54 c-69 -83 -85 -110 -108 -178 -27 -81 -26
-117 5 -180 43 -87 119 -130 196 -113 l40 9 -81 -83 c-94 -96 -113 -133 -113
-226 0 -112 50 -192 159 -256 42 -25 58 -28 133 -28 76 0 92 4 152 33 76 37
138 93 192 173 l36 54 0 -78 c0 -116 -13 -153 -90 -254 -93 -123 -113 -165
-114 -238 -2 -159 129 -255 288 -211 99 28 153 63 215 141 92 115 121 140 187
158 33 9 80 17 104 17 l44 0 -52 -26 c-70 -35 -132 -106 -165 -191 -15 -39
-38 -79 -50 -91 -12 -11 -83 -46 -157 -77 -220 -90 -290 -149 -298 -249 -7
-86 36 -150 136 -200 87 -44 197 -22 296 59 l52 42 0 -67 c-2 -122 48 -165
192 -165 l83 0 -34 -31 c-59 -54 -92 -53 -269 7 -186 64 -293 75 -370 41 -108
-47 -151 -192 -92 -311 31 -61 84 -104 224 -181 115 -62 169 -114 235 -222 32
-52 70 -98 103 -125 l53 -43 -34 0 c-42 0 -62 15 -202 150 -132 128 -170 154
-255 176 -82 21 -166 13 -237 -22 -67 -32 -93 -73 -93 -145 0 -67 28 -128 104
-229 34 -44 63 -95 71 -125 13 -43 36 -225 30 -233 -1 -1 -15 17 -30 40 -71
108 -140 190 -179 213 -24 14 -73 32 -110 42 -56 13 -75 14 -120 4 -171 -38
-284 -319 -192 -476 15 -25 51 -63 81 -85 48 -35 89 -79 82 -86 -2 -2 -21 3
-42 11 -63 22 -106 18 -157 -14 -62 -39 -83 -94 -83 -216 0 -78 4 -98 28 -150
l28 -60 -50 49 c-28 28 -57 64 -66 82 -8 18 -24 92 -35 166 -34 225 -59 277
-161 333 -102 55 -223 36 -319 -51 -76 -68 -83 -99 -75 -298 6 -160 6 -173
-12 -195 -19 -24 -19 -23 -15 67 4 79 1 97 -18 137 -29 61 -87 95 -160 95
-102 0 -167 -78 -177 -213 -5 -62 0 -94 32 -222 45 -179 45 -264 2 -359 -14
-31 -28 -56 -30 -56 -3 0 4 28 15 63 37 116 8 244 -113 497 -64 135 -69 152
-79 245 -22 208 -61 301 -148 352 -36 21 -61 28 -126 31 -113 6 -160 -9 -217
-67 -52 -54 -71 -109 -89 -253 -22 -179 -89 -297 -202 -354 -26 -13 -51 -24
-55 -24 -4 0 18 26 49 57 66 68 92 117 107 200 15 79 5 134 -31 184 -52 72
-124 96 -216 70 -56 -17 -51 -10 121 146 65 60 81 94 82 178 0 84 -23 139 -86
202 -97 99 -279 131 -406 71 -62 -29 -112 -83 -157 -167 -32 -61 -91 -129
-103 -118 -2 2 1 17 7 33 6 16 20 74 31 128 26 130 33 145 117 251 89 112 107
147 105 207 -2 87 -77 178 -170 209 -49 16 -158 6 -216 -19 -31 -14 -87 -59
-160 -130 -128 -126 -174 -153 -267 -159 l-65 -5 61 31 c88 45 107 67 144 165
44 116 68 135 264 216 168 69 215 99 248 163 29 57 36 162 14 205 -21 41 -74
80 -132 98 -88 26 -139 15 -247 -55 l-74 -49 4 42 c4 31 -1 54 -17 85 -40 80
-175 118 -275 77 l-40 -16 40 35 c22 19 60 44 85 56 63 30 180 22 310 -21 52
-17 116 -34 141 -37 93 -11 225 51 277 130 21 32 27 52 27 97 0 108 -72 179
-237 231 -149 48 -182 74 -244 192 -29 54 -70 121 -93 150 -37 47 -39 52 -20
55 33 6 123 -45 172 -96 24 -26 77 -82 117 -124 40 -43 92 -87 114 -97 93 -45
228 -35 292 21 91 80 89 168 -6 337 -62 109 -87 172 -95 242 -6 49 -18 105
-32 152 -4 16 -2 17 15 8 12 -6 55 -63 96 -126 62 -94 86 -122 132 -152 54
-36 61 -38 138 -38 65 0 91 5 129 24 116 57 217 192 217 291 0 55 -28 103
-118 203 -34 37 -62 69 -62 71 0 1 24 1 53 -2 120 -10 207 81 207 215 0 91
-15 127 -83 200 l-62 66 45 -23 c70 -35 108 -68 130 -111 12 -22 33 -114 51
-216 17 -98 38 -191 48 -208 9 -16 38 -46 64 -66 126 -95 287 -97 383 -5 71
68 80 152 34 306 -19 65 -20 78 -9 119 l13 46 13 -62 c15 -74 31 -109 70 -145
37 -35 73 -48 136 -48 70 0 110 25 132 84 25 65 15 212 -25 379 -35 150 -37
215 -9 277 17 39 46 80 55 80 2 0 -5 -19 -16 -42z"/>
<path d="M3347 4260 c-52 -33 -99 -91 -133 -166 -35 -79 -74 -233 -81 -323
l-6 -81 45 0 45 0 11 103 c29 264 118 453 223 474 39 8 26 23 -20 23 -24 0
-53 -10 -84 -30z"/>
<path d="M3512 4253 c8 -10 18 -31 22 -48 10 -43 34 -75 55 -75 21 0 51 30 51
52 0 20 -38 54 -82 73 -50 20 -65 20 -46 -2z"/>
<path d="M2408 4250 c-15 -4 -37 -15 -50 -24 l-22 -16 29 0 c47 0 113 -38 145
-85 58 -85 88 -192 115 -412 24 -202 61 -304 143 -395 33 -37 79 -68 100 -68
6 0 -5 28 -24 63 -63 117 -85 208 -104 432 -13 152 -31 239 -65 313 -70 153
-166 223 -267 192z"/>
<path d="M2160 4099 c-88 -66 -120 -107 -120 -152 0 -70 43 -88 83 -34 29 38
130 237 124 244 -3 2 -42 -24 -87 -58z"/>
<path d="M3392 4150 c-42 -17 -79 -139 -102 -335 -14 -126 -15 -122 23 -130
17 -4 39 -8 47 -11 13 -3 15 19 15 154 1 157 13 250 41 305 15 29 12 31 -24
17z"/>
<path d="M3685 4113 c66 -114 146 -181 181 -152 26 21 17 75 -17 103 -28 24
-166 96 -183 96 -5 0 4 -21 19 -47z"/>
<path d="M3510 4106 c0 -4 13 -32 29 -64 37 -72 82 -116 110 -107 28 9 36 41
16 71 -22 34 -155 119 -155 100z"/>
<path d="M2380 4081 c0 -4 13 -25 29 -45 69 -87 92 -229 98 -613 3 -167 8
-303 12 -303 17 1 29 21 45 82 10 36 33 90 52 119 l35 52 -30 67 c-30 69 -45
133 -56 255 -17 177 -65 309 -133 365 -37 31 -52 37 -52 21z"/>
<path d="M3425 4025 c11 -55 36 -113 50 -119 15 -5 45 18 45 35 0 6 -23 34
-50 62 -49 50 -50 51 -45 22z"/>
<path d="M2326 3951 c-40 -62 -56 -104 -56 -146 0 -49 16 -75 45 -75 56 0 79
97 51 215 l-12 50 -28 -44z"/>
<path d="M1903 3877 c-76 -74 -77 -76 -78 -127 0 -40 4 -55 18 -64 15 -9 23
-5 52 26 24 26 42 62 64 134 17 54 28 100 26 103 -3 2 -39 -30 -82 -72z"/>
<path d="M2164 3887 c-65 -71 -88 -118 -88 -185 0 -40 5 -57 21 -73 28 -29 50
-19 73 33 18 43 55 248 48 269 -2 6 -27 -13 -54 -44z"/>
<path d="M3727 3923 c27 -76 85 -183 108 -201 30 -24 74 -29 93 -10 36 36 -13
109 -121 181 -78 51 -90 56 -80 30z"/>
<path d="M3560 3900 c0 -31 36 -118 65 -156 39 -51 95 -43 95 14 0 17 -21 46
-70 93 -74 73 -90 82 -90 49z"/>
<path d="M3941 3858 c27 -69 50 -106 91 -145 44 -42 77 -50 108 -25 22 18 23
22 11 50 -17 42 -97 114 -159 146 -28 14 -56 26 -62 26 -5 0 0 -24 11 -52z"/>
<path d="M3425 3813 c10 -58 27 -86 58 -96 22 -7 33 -6 44 6 13 13 13 18 -1
45 -17 33 -74 82 -96 82 -9 0 -10 -10 -5 -37z"/>
<path d="M1958 3702 c-91 -142 -109 -206 -66 -236 64 -45 93 2 103 165 4 66 5
122 3 124 -2 2 -20 -22 -40 -53z"/>
<path d="M2391 3682 c-29 -57 -52 -150 -44 -181 7 -30 31 -61 48 -61 18 0 45
34 55 70 7 24 5 55 -6 109 -22 107 -27 113 -53 63z"/>
<path d="M2228 3635 c-71 -139 -78 -295 -14 -295 27 0 76 51 76 79 0 19 -29
240 -34 256 -2 6 -14 -12 -28 -40z"/>
<path d="M3533 3656 l-28 -24 56 -59 c56 -59 90 -114 124 -205 10 -27 22 -48
28 -48 16 0 1 158 -22 232 -38 120 -95 158 -158 104z"/>
<path d="M3735 3654 l-24 -25 28 -47 c61 -105 128 -302 161 -470 7 -35 16 -60
21 -55 17 17 31 160 25 248 -11 162 -61 306 -122 354 -35 28 -60 26 -89 -5z"/>
<path d="M1732 3622 c-72 -107 -102 -230 -66 -280 21 -30 58 -28 83 5 30 37
36 69 24 133 -6 30 -8 85 -4 123 3 37 4 67 1 67 -3 0 -20 -22 -38 -48z"/>
<path d="M3066 3640 c-76 -24 -146 -73 -192 -133 -20 -26 -35 -50 -32 -52 2
-3 31 18 64 46 39 33 77 55 113 66 50 14 59 14 120 -2 36 -10 93 -22 126 -27
143 -21 168 -28 206 -57 50 -37 84 -81 105 -140 27 -72 37 -74 31 -7 -7 73
-55 173 -102 214 -116 102 -292 139 -439 92z"/>
<path d="M3936 3641 c-17 -19 -15 -28 52 -228 103 -306 152 -560 152 -796 0
-140 6 -150 43 -68 18 38 22 71 25 193 2 81 -1 194 -8 250 -21 189 -92 538
-122 603 -14 31 -66 65 -100 65 -14 0 -33 -9 -42 -19z"/>
<path d="M4147 3622 c-23 -26 -21 -44 12 -110 157 -313 243 -864 166 -1069
-19 -49 -93 -122 -161 -156 -62 -31 -227 -82 -319 -99 -79 -14 -365 -17 -410
-5 -29 8 -29 8 -11 -12 70 -77 213 -118 381 -108 176 10 362 77 447 159 35 35
52 65 90 163 70 180 83 256 83 475 0 240 -23 356 -123 610 -57 142 -74 170
-110 170 -16 0 -36 -8 -45 -18z"/>
<path d="M3120 3521 c0 -5 17 -20 38 -33 20 -14 73 -58 117 -98 44 -40 90 -79
103 -88 25 -16 162 -23 162 -8 0 20 -52 96 -78 115 -16 11 -71 29 -122 41 -52
11 -122 33 -157 49 -35 17 -63 26 -63 22z m315 -171 c0 -18 -6 -26 -23 -28
-13 -2 -25 3 -28 12 -10 26 4 48 28 44 17 -2 23 -10 23 -28z"/>
<path d="M2030 3429 c-46 -96 -60 -171 -41 -208 23 -43 85 -15 110 50 10 28
-5 226 -19 242 -3 4 -26 -34 -50 -84z"/>
<path d="M3050 3468 c0 -42 56 -142 103 -185 55 -51 136 -78 202 -69 65 10 65
31 -1 45 -69 13 -103 37 -142 98 -17 27 -47 56 -66 67 -19 10 -45 29 -57 42
-28 30 -39 30 -39 2z"/>
<path d="M2884 3427 c-24 -21 -25 -26 -14 -48 18 -34 60 -89 68 -89 4 0 6 36
4 80 -4 89 -12 97 -58 57z"/>
<path d="M2984 3425 c-8 -20 13 -112 37 -162 28 -58 117 -137 183 -162 29 -11
80 -21 112 -23 l59 -3 0 34 c0 35 0 35 -60 46 -134 25 -242 111 -287 228 -23
58 -34 69 -44 42z"/>
<path d="M1823 3353 c-25 -59 -56 -229 -49 -267 14 -73 78 -85 117 -23 17 26
19 44 16 97 -5 70 -47 230 -60 230 -4 0 -15 -17 -24 -37z"/>
<path d="M2298 3340 c-29 -29 -30 -34 -26 -98 8 -118 80 -253 161 -303 52 -31
58 -25 32 39 -29 71 -49 150 -70 272 -23 130 -40 147 -97 90z"/>
<path d="M2646 3277 c-36 -47 -63 -113 -81 -196 -21 -103 -19 -109 19 -59 43
55 113 101 189 123 31 9 57 20 57 23 0 12 -135 142 -147 142 -7 0 -23 -15 -37
-33z"/>
<path d="M2902 3190 c-23 -43 -42 -86 -42 -95 0 -17 49 -194 58 -209 3 -5 22
37 43 92 l37 100 -23 92 c-13 50 -25 93 -27 95 -2 2 -22 -32 -46 -75z"/>
<path d="M1607 3192 c-85 -162 -91 -342 -11 -342 35 0 81 49 90 95 10 57 -19
315 -36 315 -4 0 -24 -31 -43 -68z"/>
<path d="M2175 3251 c-35 -15 -74 -62 -81 -98 -22 -119 68 -304 226 -464 62
-63 139 -119 164 -119 3 0 -27 48 -68 108 -79 115 -137 223 -155 287 -6 22
-16 89 -22 150 -10 105 -21 146 -37 144 -4 0 -16 -4 -27 -8z"/>
<path d="M3516 3241 l-50 -6 57 -44 c98 -75 170 -160 224 -266 l51 -98 16 56
c15 53 15 59 -2 105 -25 65 -72 132 -144 204 -61 61 -59 60 -152 49z"/>
<path d="M3415 3125 c-25 -66 -15 -102 51 -192 86 -119 112 -143 152 -143 l34
0 -34 48 c-53 73 -103 160 -138 242 -18 41 -36 79 -40 83 -4 4 -15 -13 -25
-38z"/>
<path d="M3002 2959 l-40 -162 26 -36 c14 -20 29 -40 33 -44 3 -5 21 13 39 40
l32 48 -14 148 c-8 81 -20 153 -25 158 -7 7 -24 -43 -51 -152z"/>
<path d="M1961 3080 c-41 -41 -47 -85 -26 -173 70 -289 245 -548 476 -703 64
-42 139 -80 139 -69 0 2 -20 26 -43 53 -131 147 -273 353 -337 486 -42 91 -79
202 -105 321 -9 44 -21 88 -26 98 -14 26 -44 21 -78 -13z"/>
<path d="M2780 3076 c-18 -48 -33 -191 -27 -265 6 -72 9 -79 45 -119 44 -47
52 -51 52 -22 0 23 24 76 46 101 12 14 11 23 -9 70 -13 30 -37 100 -52 157
-16 56 -33 102 -37 102 -5 0 -13 -11 -18 -24z"/>
<path d="M3117 3028 c2 -35 6 -83 9 -108 l6 -45 43 85 43 85 -41 22 c-61 32
-64 31 -60 -39z"/>
<path d="M2653 3031 c-27 -27 -55 -63 -62 -80 -12 -28 -11 -33 17 -68 16 -21
42 -49 56 -62 l26 -24 0 74 c1 41 7 104 14 142 7 37 10 67 6 67 -4 0 -30 -22
-57 -49z"/>
<path d="M3215 2923 c-53 -110 -56 -120 -46 -154 6 -20 11 -58 11 -85 l1 -49
20 25 c52 62 66 109 74 248 4 72 5 132 2 132 -3 0 -31 -53 -62 -117z"/>
<path d="M1802 2925 c-48 -40 -63 -90 -51 -171 35 -256 231 -585 470 -791 140
-119 335 -230 392 -221 15 2 6 12 -39 43 -84 57 -309 285 -381 385 -138 193
-229 392 -284 620 -18 74 -36 141 -42 148 -14 18 -32 15 -65 -13z"/>
<path d="M2540 2761 l0 -89 44 -58 c24 -33 54 -69 68 -82 l25 -23 5 92 6 93
-66 78 c-36 43 -69 78 -74 78 -4 0 -8 -40 -8 -89z"/>
<path d="M1599 2784 c-21 -23 -24 -34 -22 -102 2 -104 31 -208 98 -349 85
-180 170 -300 309 -439 97 -96 142 -133 222 -181 118 -69 291 -141 361 -149
l48 -6 -30 19 c-16 11 -70 41 -118 67 -180 97 -320 225 -478 435 -131 174
-212 351 -244 530 -27 148 -36 181 -55 191 -32 17 -66 11 -91 -16z"/>
<path d="M2911 2691 c-12 -22 -15 -130 -3 -148 5 -9 16 -9 45 0 35 11 37 14
37 52 0 78 -54 143 -79 96z"/>
<path d="M3077 2689 c-14 -22 -50 -131 -44 -133 1 -1 18 -9 39 -18 32 -15 37
-15 42 -2 12 30 6 140 -8 159 -13 18 -14 17 -29 -6z"/>
<path d="M3232 2625 c-13 -27 -37 -71 -53 -97 l-31 -48 24 -29 c12 -15 28 -37
35 -47 10 -16 13 -17 22 -4 17 24 33 141 29 210 l-3 65 -23 -50z"/>
<path d="M2724 2595 c-11 -77 -1 -181 20 -204 11 -12 22 -21 27 -21 4 0 18 19
32 43 14 23 34 50 46 61 l21 19 -32 41 c-42 54 -90 106 -99 106 -4 0 -11 -20
-15 -45z"/>
<path d="M3445 2611 c-58 -26 -89 -68 -163 -217 -60 -123 -64 -134 -53 -165 8
-26 24 -41 66 -63 30 -17 57 -27 61 -24 3 4 -7 23 -22 44 -23 29 -29 47 -27
81 2 51 45 150 69 160 9 3 38 -6 69 -23 62 -33 94 -28 129 19 19 26 19 30 5
55 -8 15 -25 29 -39 31 l-25 3 20 -22 c19 -22 19 -22 0 -36 -24 -18 -24 -18
-62 6 -48 29 -44 79 8 105 65 34 133 7 151 -60 14 -51 28 -50 28 3 0 48 -22
80 -74 103 -52 23 -90 24 -141 0z"/>
<path d="M2560 2498 c0 -63 24 -180 51 -253 23 -64 64 -135 77 -135 4 0 17 37
29 83 12 45 25 92 28 103 5 17 -12 44 -81 125 -48 57 -91 108 -95 114 -5 5 -9
-11 -9 -37z"/>
<path d="M2987 2496 c-55 -20 -100 -58 -143 -123 -40 -60 -114 -258 -114 -305
0 -19 19 -47 69 -100 38 -40 73 -69 77 -65 5 4 2 18 -6 30 -38 60 -42 78 -38
173 3 88 5 97 28 116 24 20 26 20 112 2 22 -5 34 0 58 24 34 35 38 62 12 85
-26 24 -33 21 -30 -11 3 -38 -8 -52 -42 -52 -23 0 -33 7 -45 30 -24 46 -19 75
20 109 20 17 45 31 56 31 50 0 108 -57 109 -107 1 -17 1 -17 11 1 19 32 5 105
-27 136 -38 36 -61 42 -107 26z"/>
<path d="M3065 2168 c4 -13 26 -59 49 -103 62 -120 201 -258 316 -313 98 -46
163 -62 259 -62 65 0 71 2 137 49 70 49 188 151 181 157 -1 2 -45 -6 -97 -16
-188 -39 -351 -19 -526 64 -118 56 -167 90 -255 177 -48 47 -68 62 -64 47z"/>
<path d="M3200 2140 c21 -39 129 -123 205 -160 131 -62 195 -75 385 -75 153 0
170 2 225 25 48 20 69 37 111 89 28 36 60 78 69 94 18 29 18 30 -1 22 -193
-82 -347 -117 -519 -117 -176 0 -305 32 -428 106 -42 26 -54 30 -47 16z"/>
<path d="M2923 2088 c6 -62 53 -182 109 -276 45 -76 181 -213 240 -241 79 -38
140 -38 231 -2 43 17 102 43 130 58 l52 26 -85 13 c-231 34 -467 181 -606 377
-79 112 -77 111 -71 45z"/>
<path d="M2750 1913 c1 -75 108 -293 190 -385 l42 -48 71 0 c68 0 244 23 254
34 2 2 -34 22 -80 44 -169 79 -323 197 -412 316 -27 36 -53 66 -57 66 -5 0 -8
-12 -8 -27z"/>
<path d="M947 4743 c7 -37 21 -81 31 -98 20 -34 92 -75 133 -75 l27 0 -40 80
c-39 79 -67 110 -134 143 l-31 16 14 -66z m94 -61 c34 -54 36 -67 9 -52 -25
13 -46 46 -56 84 -10 40 10 27 47 -32z"/>
<path d="M5115 4621 c-70 -26 -70 -27 -105 -97 -19 -39 -43 -83 -53 -98 -10
-15 -17 -29 -15 -31 8 -9 164 66 180 86 10 11 24 43 32 69 8 27 20 58 26 70 6
12 10 23 8 25 -2 2 -34 -9 -73 -24z m-41 -132 c-9 -10 -21 -19 -26 -19 -11 0
1 49 21 80 l16 24 3 -33 c2 -21 -3 -40 -14 -52z"/>
<path d="M832 1427 c-53 -20 -103 -67 -128 -121 -27 -59 -42 -136 -26 -136 18
0 175 118 188 142 7 13 13 34 14 48 0 14 7 37 14 53 14 26 14 27 -7 26 -12 0
-37 -6 -55 -12z m8 -73 c0 -18 -62 -84 -78 -84 -18 0 8 58 35 80 31 24 43 25
43 4z"/>
<path d="M4931 1203 c36 -76 39 -79 101 -108 34 -17 73 -41 86 -54 12 -13 24
-22 26 -20 3 2 -3 28 -13 57 -32 92 -121 176 -212 197 l-26 6 38 -78z m89 -14
c42 -24 73 -70 41 -62 -23 6 -91 61 -91 74 0 13 8 11 50 -12z"/>
</g>
</svg>
