<svg xmlns="http://www.w3.org/2000/svg" xmlns:xlink="http://www.w3.org/1999/xlink" version="1.1" x="0px" y="0px" viewBox="0 0 100 125" enable-background="new 0 0 100 100" xml:space="preserve"><path d="M35.833,29.294c-1.095,0-1.986,0.891-1.986,1.986c0,1.096,0.891,1.987,1.986,1.987c1.096,0,1.988-0.892,1.988-1.987  C37.821,30.185,36.929,29.294,35.833,29.294z M35.833,32.268l-0.012-0.987c0-0.002,0.001-0.012,0.012-0.013V32.268z"/><path d="M58.019,25.77c-1.096,0-1.986,0.891-1.986,1.986c0,1.096,0.891,1.987,1.986,1.987s1.986-0.892,1.986-1.987  C60.005,26.661,59.114,25.77,58.019,25.77z M58.019,28.743l-0.014-0.987c0.001-0.01,0.009-0.013,0.014-0.013V28.743z"/><path d="M40.345,25.77c-1.095,0-1.986,0.891-1.986,1.986c0,1.096,0.891,1.987,1.986,1.987s1.986-0.892,1.986-1.987  C42.331,26.661,41.44,25.77,40.345,25.77z M40.345,28.743l-0.014-0.987c0-0.01,0.009-0.013,0.014-0.013V28.743z"/><path d="M44.761,29.294c-1.095,0-1.986,0.891-1.986,1.986c0,1.096,0.891,1.987,1.986,1.987c1.096,0,1.988-0.892,1.988-1.987  C46.749,30.185,45.857,29.294,44.761,29.294z M44.761,32.268l-0.012-0.987c0-0.002,0.001-0.012,0.012-0.013V32.268z"/><path d="M53.687,29.294c-1.096,0-1.986,0.891-1.986,1.986c0,1.096,0.891,1.987,1.986,1.987c1.097,0,1.988-0.892,1.988-1.987  C55.675,30.185,54.783,29.294,53.687,29.294z M53.687,32.268l-0.012-0.987c0-0.002,0.001-0.012,0.012-0.013V32.268z"/><path d="M63.656,29.589c-0.907-0.559-2.176-0.255-2.734,0.651c-0.572,0.933-0.279,2.159,0.652,2.733  c0.313,0.193,0.673,0.294,1.039,0.295c0.696,0,1.329-0.354,1.691-0.944c0.279-0.451,0.365-0.984,0.243-1.5  C64.425,30.306,64.108,29.868,63.656,29.589z"/><path d="M85.149,55.002c0-3.423-2.637-6.237-5.984-6.53V41.93c0-0.037-0.018-0.069-0.021-0.105c0.002-0.023,0.014-0.043,0.014-0.066  c0-12.243-9.96-22.204-22.203-22.204H43.046c-12.244,0-22.205,9.961-22.205,22.204c0,0.03,0.015,0.056,0.018,0.086  c-0.002,0.03-0.018,0.056-0.018,0.086v6.542c-3.351,0.291-5.99,3.106-5.99,6.531c0,3.28,2.421,5.997,5.568,6.479v5.127v4.443  c0,5.181,4.215,9.396,9.396,9.396h39.525c5.18,0,9.395-4.215,9.395-9.396v-4.443v-5.052C82.284,61.478,85.149,58.57,85.149,55.002z   M76.665,46.796l-3.203-2.161c-0.4-0.27-0.918-0.286-1.333-0.042l-6.048,3.556l-6.908-3.587c-0.372-0.193-0.817-0.187-1.184,0.017  l-6.418,3.567l-6.338-3.563c-0.356-0.201-0.787-0.214-1.154-0.038l-7.507,3.604l-5.489-3.528c-0.352-0.227-0.794-0.262-1.177-0.094  L23.341,47.4v-4.392h53.324V46.796z M30.295,47.085l2.11,1.357h-5.211L30.295,47.085z M44.575,47.08l2.422,1.362h-5.26L44.575,47.08  z M58.616,47.091l2.603,1.352h-5.034L58.616,47.091z M72.717,47.149l1.918,1.293h-4.118L72.717,47.149z M43.046,22.054h13.908  c10.444,0,19.018,8.169,19.664,18.454H23.38C24.027,30.223,32.6,22.054,43.046,22.054z M76.235,65.357H34.778  c-0.106,0-0.213,0.014-0.316,0.041c-3.068,0.801-3.639,4.16-3.513,5.883c-0.022,0.846-0.718,1.527-1.57,1.527  c-0.865,0-1.568-0.704-1.568-1.569v-4.632c0-0.69-0.56-1.25-1.25-1.25h-3.643v-3.794h53.316V65.357z M69.341,77.946H29.815  c-3.803,0-6.896-3.094-6.896-6.896v-3.193h2.393v3.382c0,2.244,1.825,4.069,4.068,4.069c2.244,0,4.07-1.825,4.07-4.069  c0-0.032-0.001-0.069-0.004-0.101c-0.009-0.113-0.187-2.704,1.513-3.281h41.276v3.193C76.235,74.853,73.143,77.946,69.341,77.946z   M78.589,59.063h-1.104H21.669h-0.258c-2.239,0-4.061-1.822-4.061-4.062c0-2.238,1.822-4.06,4.061-4.06h57.178  c2.239,0,4.061,1.821,4.061,4.06C82.649,57.241,80.828,59.063,78.589,59.063z"/></svg>
